<?xml version="1.0" encoding="UTF-8" standalone="no"?>
<svg width="11.2889mm" height="11.2889mm"
 viewBox="0 0 32 32"
 xmlns="http://www.w3.org/2000/svg" xmlns:xlink="http://www.w3.org/1999/xlink"  version="1.2" baseProfile="tiny">
<title>Qt SVG Document</title>
<desc>Generated with Qt</desc>
<defs>
</defs>
<g fill="none" stroke="black" stroke-width="1" fill-rule="evenodd" stroke-linecap="square" stroke-linejoin="bevel" >

<g fill="#ffffff" fill-opacity="1" stroke="#e31a1c" stroke-opacity="1" stroke-width="1.13386" stroke-linecap="square" stroke-linejoin="bevel" transform="matrix(1,0,0,1,0,0)"
font-family="MS Shell Dlg 2" font-size="7.8" font-weight="400" font-style="normal" 
>
<path vector-effect="none" fill-rule="evenodd" d="M23.3701,16 C23.3701,20.0704 20.0704,23.3701 16,23.3701 C11.9296,23.3701 8.62992,20.0704 8.62992,16 C8.62992,11.9296 11.9296,8.62992 16,8.62992 C20.0704,8.62992 23.3701,11.9296 23.3701,16 "/>
</g>

<g fill="#e31a1c" fill-opacity="1" stroke="#e31a1c" stroke-opacity="1" stroke-width="0.566929" stroke-linecap="square" stroke-linejoin="bevel" transform="matrix(1,0,0,1,0,0)"
font-family="MS Shell Dlg 2" font-size="7.8" font-weight="400" font-style="normal" 
>
<path vector-effect="none" fill-rule="evenodd" d="M11.748,15.1496 L11.748,16.8504 L15.1496,16.8504 L15.1496,20.252 L16.8504,20.252 L16.8504,16.8504 L20.252,16.8504 L20.252,15.1496 L16.8504,15.1496 L16.8504,11.748 L15.1496,11.748 L15.1496,15.1496 L11.748,15.1496"/>
</g>
</g>
</svg>
